<svg xmlns="http://www.w3.org/2000/svg" viewBox="0 0 40 40"><defs><style>.cls-1{fill:#020202;}</style></defs><title>Artboard 115 copy 5</title><g id="desktop"><path class="cls-1" d="M29.66,11.65a7.87,7.87,0,0,1-4,3c-3.11.95-4.55-1.11-6.77-2.65-3.51-2.45-6.81-1.37-9.46,1.83-.28.34.76,1.59.86,1.48,1.8-2.17,4.16-3.84,7.14-3,2.1.56,2.88,2.49,4.65,3.43,3.09,1.64,6.48.1,8.39-2.58C30.79,12.75,29.73,11.56,29.66,11.65Z"/><path class="cls-1" d="M29.66,17.92a7.87,7.87,0,0,1-4,3c-3.11.95-4.55-1.11-6.77-2.65-3.51-2.45-6.81-1.37-9.46,1.83-.28.34.76,1.59.86,1.48,1.8-2.17,4.16-3.84,7.14-3,2.1.56,2.88,2.49,4.65,3.43,3.09,1.64,6.48.1,8.39-2.58C30.79,19,29.73,17.84,29.66,17.92Z"/><path class="cls-1" d="M29.66,24.59a7.87,7.87,0,0,1-4,3c-3.11.95-4.55-1.11-6.77-2.65-3.51-2.45-6.81-1.37-9.46,1.83-.28.34.76,1.59.86,1.48,1.8-2.17,4.16-3.84,7.14-3,2.1.56,2.88,2.49,4.65,3.43,3.09,1.64,6.48.1,8.39-2.58C30.79,25.7,29.73,24.51,29.66,24.59Z"/></g></svg>