<svg xmlns="http://www.w3.org/2000/svg" viewBox="0 0 40 40"><title>Artboard 115 copy 7</title><g id="desktop"><path d="M6.74,11l4.43,16.9c.08.32.57,1.5,1,1.5H24.89c.32,0-.42-1.88-.92-1.88H11.27l1,1.5L7.84,12.12c-.1-.38-1.34-2.06-1.09-1.13Z"/><path d="M25,29.32l4.45-16.9c.1-.38-.61-1.8-1-1.8H6.83c-.32,0,.42,1.88.92,1.88H29.34l-1-1.8-4.45,16.9c-.14.55,1.12,1.91,1.17,1.73Z"/><path d="M28.75,15.67c1.62.09,3.21.84,3.36,2.67A4.08,4.08,0,0,1,31,21.59a8.12,8.12,0,0,1-5.57,2.14c-.33,0,.43,1.89.92,1.88,3.36-.08,7.28-1.89,7-5.78-.25-2.94-2.37-5.86-5.44-6-.29,0,.4,1.85.92,1.88Z"/></g></svg>