<svg xmlns="http://www.w3.org/2000/svg" viewBox="0 0 153.5 40"><title>Artboard 115 copy 3</title><g id="desktop"><path d="M91.9,30.29l6.3-10.93-.82-.73,6.3,10.93-.22-1.07H90.86c-.32,0,.42,1.88.92,1.88h12.6c.37,0-.17-1-.22-1.07l-6.3-10.93c-.06-.1-.63-1.05-.82-.73l-6.3,10.93C90.49,29,91.74,30.57,91.9,30.29Z"/><ellipse cx="14.08" cy="9.3" rx="4.03" ry="4.08"/><ellipse cx="25.32" cy="9.18" rx="3.6" ry="3.64"/><ellipse cx="35.99" cy="9.13" rx="3.38" ry="3.42"/><ellipse cx="46.19" cy="9.07" rx="3.17" ry="3.2"/><ellipse cx="55.85" cy="9.01" rx="2.95" ry="2.99"/><ellipse cx="65.47" cy="8.95" rx="2.74" ry="2.77"/><ellipse cx="74.78" cy="8.9" rx="2.52" ry="2.55"/><ellipse cx="84.62" cy="8.84" rx="2.31" ry="2.33"/><ellipse cx="93.44" cy="8.78" rx="2.09" ry="2.11"/><ellipse cx="102.26" cy="8.73" rx="1.88" ry="1.9"/><ellipse cx="111.08" cy="8.67" rx="1.66" ry="1.68"/><ellipse cx="119.89" cy="8.61" rx="1.44" ry="1.46"/><ellipse cx="128.71" cy="8.55" rx="1.23" ry="1.24"/><ellipse cx="137.53" cy="8.5" rx="1.01" ry="1.02"/></g></svg>