<svg xmlns="http://www.w3.org/2000/svg" viewBox="0 0 40 40"><defs><style>.cls-1{fill:#020202;}</style></defs><title>Artboard 115 copy 4</title><g id="desktop"><path class="cls-1" d="M16.17,19.71C11.48,23.45,14.41,32,20.5,32c6.82,0,7.28-9.09,2.55-12.3-.4-.27.3,1.48.7,1.75,3.7,2.51.18,7.84-3.06,8.55-2.36.51-5.34-.55-5.79-3.29a5.63,5.63,0,0,1,2.35-5.11c.37-.29-.84-2.06-1.08-1.87Z"/><path class="cls-1" d="M24,21.31V9.68c0-.46-1.17-2-1.17-1.48V19.83c0,.46,1.17,2,1.17,1.48Z"/><path class="cls-1" d="M22.94,8H16.26c-.32,0,.42,1.88.92,1.88h6.68c.32,0-.42-1.88-.92-1.88Z"/><path class="cls-1" d="M16.13,8.2V19.83c0,.46,1.17,2,1.17,1.48V9.68c0-.46-1.17-2-1.17-1.48Z"/><path class="cls-1" d="M23.14,11.41H19.51c-.18,0,.23,1,.51,1h3.63c.18,0-.23-1-.51-1Z"/><path class="cls-1" d="M23.14,14.23H19.51c-.18,0,.23,1,.51,1h3.63c.18,0-.23-1-.51-1Z"/><path class="cls-1" d="M23.14,17.2H19.51c-.18,0,.23,1,.51,1h3.63c.18,0-.23-1-.51-1Z"/></g></svg>