<svg xmlns="http://www.w3.org/2000/svg" viewBox="0 0 40 40"><defs><style>.cls-1{fill:#231f20;}</style></defs><title>Artboard 115 copy 6</title><g id="desktop"><path class="cls-1" d="M29.31,19.13a10.09,10.09,0,0,1-5.76,8.94c-5.39,2.44-12.66-.48-12.8-7.27a9.72,9.72,0,0,1,5.7-8.88,10,10,0,0,1,6.13-.65,9.09,9.09,0,0,1,6.73,8c0,.46,1.2,2,1.17,1.48-.26-4.75-3.13-9.51-7.81-11.06A10.1,10.1,0,0,0,9.52,19.2a12.25,12.25,0,0,0,6.85,10.75c6.73,3.06,13.72-2.09,14.1-9.08C30.51,20.27,29.31,19.07,29.31,19.13Z"/><path class="cls-1" d="M19.42,12.53v6.8c0,.35.6,1.68,1,1.68h4.68c.32,0-.42-1.88-.92-1.88H19.54l1,1.68V14c0-.46-1.17-2-1.17-1.48Z"/></g></svg>