<svg xmlns="http://www.w3.org/2000/svg" viewBox="0 0 453.28 517.54"><title>aeropress-mobile-frame</title><g id="desktop"><path d="M202.84,55.35H398.31l-1.67-2.68v396.9c0,.82.43,3.1,0,3.83-.32.55.4-.21.1,0s-1,0-1.23,0H62.06l1.67,2.68V102.88c0-4.68.61-9.82,0-14.47a5.16,5.16,0,0,1,0-.65c0-.74-1.87-3.19-1.87-2.37V438.57c0,4.68-.61,9.82,0,14.47a5.16,5.16,0,0,1,0,.65c0,.56,1,2.68,1.67,2.68H398.31c.22,0,.2-.12.2-.32V71.51c0-5.12.63-10.69,0-15.79a5.77,5.77,0,0,1,0-.69c0-.56-1-2.68-1.67-2.68H201.37c-.51,0,.67,3,1.47,3Z"/></g></svg>