<svg xmlns="http://www.w3.org/2000/svg" viewBox="0 0 112.39 346.48"><defs><style>.cls-1,.cls-2,.cls-3,.cls-4{fill:none;}.cls-1,.cls-3,.cls-4,.cls-5{stroke:#fff;}.cls-1,.cls-2,.cls-4,.cls-5{stroke-miterlimit:10;}.cls-2{stroke:#baddd4;stroke-width:1px;stroke-dasharray:4;}.cls-3{stroke-linecap:round;stroke-linejoin:round;}.cls-4{stroke-width:0.98px;}.cls-5{fill:#ea5230;}</style></defs><title>Artboard 15 copy</title><g id="desktop"><rect class="cls-1" x="22.97" y="58.14" width="71.89" height="147.69"/><line class="cls-1" x1="104.65" y1="58.14" x2="13.18" y2="58.14"/><path class="cls-2" d="M50.48,140.09c0-14,16.38-14,16.38-28s-16.38-14-16.38-28,16.38-14,16.38-28S50.48,42,50.48,28,66.86,14,66.86,0"/><polyline class="cls-3" points="82.69 83.26 80.6 85.44 80.6 75.97"/><path class="cls-3" d="M79.06,101.82h4.73s-2.61,3.28-3.44,4.5c-1.07,1.56-.61,3.57,1.42,3.57a1.92,1.92,0,0,0,2-2.2"/><polyline class="cls-3" points="78.79 152.36 84.13 152.36 80.61 159.14 80.61 149.93"/><path class="cls-3" d="M81.56,130.15a2,2,0,1,0,2,2"/><path class="cls-3" d="M83.69,127.89a2.26,2.26,0,1,0-2.26,2.26"/><rect class="cls-4" x="27.39" y="205.97" width="60.93" height="119.05"/><polyline class="cls-1" points="58.01 188 93.35 188 88.33 205.97 27.39 205.97 23.2 188 58.01 188"/><line class="cls-5" x1="27.91" y1="187.9" x2="25.17" y2="196.03"/><line class="cls-5" x1="49.17" y1="187.99" x2="43.11" y2="205.78"/><line class="cls-5" x1="38.04" y1="187.99" x2="31.97" y2="205.78"/><line class="cls-5" x1="60.38" y1="187.99" x2="53.81" y2="206.16"/><line class="cls-5" x1="71.54" y1="187.99" x2="65.4" y2="205.78"/><line class="cls-5" x1="82.59" y1="187.99" x2="76.65" y2="205.97"/><rect class="cls-1" x="20.19" y="325.08" width="75.87" height="6.03"/><rect class="cls-1" x="10.93" y="49.18" width="95.98" height="8.97"/></g></svg>