<svg xmlns="http://www.w3.org/2000/svg" viewBox="0 0 267.85 519"><defs><style>.cls-1{fill:#7d3c21;}.cls-2,.cls-8{fill:#fff;}.cls-3{fill:#baddd4;}.cls-4{fill:#5a371b;}.cls-5,.cls-6,.cls-7,.cls-9{fill:none;}.cls-5,.cls-6,.cls-7,.cls-8,.cls-9{stroke:#fff;stroke-miterlimit:10;}.cls-6{stroke-width:1.47px;}.cls-7{stroke-width:1.28px;}.cls-8{stroke-width:0.32px;}.cls-9{stroke-width:1.26px;}</style></defs><title>Artboard 103</title><g id="desktop"><polygon class="cls-1" points="176.22 257.01 85.02 257.01 85.02 94.38 176.22 110.7 176.22 257.01"/><path class="cls-2" d="M203.31,66.42l-.32-.95c3.26-1.12,7.48-3.28,9.07-7.25,1.16-2.9.72-6.36-1.32-10.29l.89-.46c2.17,4.2,2.63,7.94,1.36,11.12C211.25,62.92,206.77,65.24,203.31,66.42Z"/><polygon class="cls-2" points="202.2 59.44 200.15 66.77 205.89 71.77 205.93 71.76 202.24 59.42 202.2 59.44"/><path class="cls-3" d="M168.33,124.68a13.4,13.4,0,0,1-4.06-.79l.34-.94a12.38,12.38,0,0,0,3.76.74Zm4.11-.48-.27-1a12.32,12.32,0,0,0,3.48-1.6l.55.83A13.34,13.34,0,0,1,172.44,124.2Zm-11.79-2.31a13.31,13.31,0,0,1-2.83-3l.83-.56a12.31,12.31,0,0,0,2.62,2.79Zm-29.17-5.11a13.47,13.47,0,0,1-1.56-.09l.12-1a12.42,12.42,0,0,0,3.82-.15l.19,1A13.35,13.35,0,0,1,131.48,116.78Zm24-1.06a12.22,12.22,0,0,0-3-2.32l.48-.88a13.23,13.23,0,0,1,3.29,2.51Zm-29.56-.14a13.24,13.24,0,0,1-3.46-2.28l.67-.74a12.26,12.26,0,0,0,3.2,2.11Zm12-.48-.49-.87q.42-.23.82-.5l.91-.6a13.57,13.57,0,0,1,1.72-1l.42.91a12.6,12.6,0,0,0-1.6.9l-.91.6Q138.4,114.85,137.95,115.1Zm10.9-3A12.49,12.49,0,0,0,145,112l-.12-1a13.42,13.42,0,0,1,4.14.13Zm-29-2a12.24,12.24,0,0,0-2.75-2.66l.57-.82a13.3,13.3,0,0,1,3,2.88Zm-24.39-.38-.71,0,.05-1a12.31,12.31,0,0,0,3.81-.39l.26,1A13.34,13.34,0,0,1,95.5,109.78Zm-4.76-.87a13.26,13.26,0,0,1-3.6-2.05l.63-.78a12.28,12.28,0,0,0,3.33,1.9Zm12-1.24-.55-.83.52-.34a13.39,13.39,0,0,1,3.14-1.53l.32.95a12.4,12.4,0,0,0-2.91,1.42Zm11-1.84a12.43,12.43,0,0,0-3.67-.55h-.12v-1H110a13.41,13.41,0,0,1,4,.6Zm-29.27-1.95.35-.35h0l.36-.36.15.36h-.5Z"/><path class="cls-4" d="M158.31,193.45a1.91,1.91,0,0,0,.69,3.46,1.94,1.94,0,0,0,.38,0,1.91,1.91,0,0,0,1.58-3A1.91,1.91,0,0,0,158.31,193.45Z"/><path class="cls-4" d="M169.8,207.24a1.91,1.91,0,1,0,.28,1.43A1.89,1.89,0,0,0,169.8,207.24Z"/><path class="cls-4" d="M151.48,199.76a1.91,1.91,0,1,0-1.59-.85A1.9,1.9,0,0,0,151.48,199.76Z"/><path class="cls-4" d="M148.25,246.66a1.91,1.91,0,0,0-.75,3.74,1.94,1.94,0,0,0,.38,0,1.91,1.91,0,0,0,.37-3.78Z"/><path class="cls-4" d="M164.13,235.6a1.91,1.91,0,0,0,.69,3.46,1.94,1.94,0,0,0,.38,0,1.91,1.91,0,0,0,1.58-3A1.91,1.91,0,0,0,164.13,235.6Z"/><path class="cls-4" d="M142.86,193.14a1.91,1.91,0,1,0-1.05.32A1.91,1.91,0,0,0,142.86,193.14Z"/><path class="cls-4" d="M96.31,199.79a1.91,1.91,0,1,0,1.21.81A1.9,1.9,0,0,0,96.31,199.79Z"/><path class="cls-4" d="M98.16,163.53a1.91,1.91,0,0,0,.69,3.46,1.94,1.94,0,0,0,.38,0,1.91,1.91,0,0,0,1.58-3A1.91,1.91,0,0,0,98.16,163.53Z"/><path class="cls-4" d="M164.24,213.81a1.91,1.91,0,1,0-.38,0A1.9,1.9,0,0,0,164.24,213.81Z"/><path class="cls-4" d="M148.23,233.29a1.91,1.91,0,0,0,.69,3.46,1.94,1.94,0,0,0,.38,0,1.89,1.89,0,0,0,1.05-.32,1.91,1.91,0,1,0-2.12-3.17Z"/><path class="cls-4" d="M151.83,220.81a1.91,1.91,0,0,0,.69,3.46,1.94,1.94,0,0,0,.38,0,1.89,1.89,0,0,0,1.05-.32,1.91,1.91,0,1,0-2.12-3.17Z"/><path class="cls-4" d="M136.77,241a1.91,1.91,0,0,0,.69,3.46,1.94,1.94,0,0,0,.38,0,1.91,1.91,0,0,0,1.58-3A1.91,1.91,0,0,0,136.77,241Z"/><path class="cls-4" d="M143.58,205.26a1.91,1.91,0,1,0,1.21.81A1.9,1.9,0,0,0,143.58,205.26Z"/><path class="cls-4" d="M131.13,218.34a1.91,1.91,0,0,0,.69,3.46,1.94,1.94,0,0,0,.38,0,1.91,1.91,0,0,0,1.58-3A1.91,1.91,0,0,0,131.13,218.34Z"/><path class="cls-4" d="M92.21,242.12a1.88,1.88,0,0,0-1.43.28,1.91,1.91,0,0,0,1.06,3.49,1.89,1.89,0,0,0,1.05-.32,1.91,1.91,0,0,0-.68-3.46Z"/><path class="cls-4" d="M103.85,241.62a1.89,1.89,0,0,0-1.43.28,1.91,1.91,0,1,0,2.64.53A1.89,1.89,0,0,0,103.85,241.62Z"/><path class="cls-4" d="M110.35,228.75a1.91,1.91,0,1,0,2.64.53A1.89,1.89,0,0,0,110.35,228.75Z"/><path class="cls-4" d="M125.48,245.54a1.91,1.91,0,1,0,2.64.53A1.91,1.91,0,0,0,125.48,245.54Z"/><path class="cls-4" d="M91.18,229.57a1.9,1.9,0,1,0-1.05.32A1.91,1.91,0,0,0,91.18,229.57Z"/><path class="cls-2" d="M176.18,280.63H84.52V93.37h91.66Zm-90.66-1h89.66V94.37H85.52Z"/><rect class="cls-2" x="72.67" y="93.37" width="115.35" height="1"/><path class="cls-2" d="M191.37,94.37h-122V82.06h122Zm-121-1h120V83.06h-120Z"/><path class="cls-5" d="M137,216.36c1.88-12.68-.93-24.37-2.54-34.32-2.57-15.87,2.72-32,5.43-43S168.28,26.21,168.28,26.21l-4.47-1.06L159.33,24s-24,102.3-26.68,113.29-5.36,27.74-14.94,40.65c-6,8.09-13.87,17.18-18,29.3s-4.73,27.82,11.84,32.07h.17C128.36,243.24,135.09,229,137,216.36Z"/><rect class="cls-6" x="113.22" y="456.58" width="34.46" height="12.5"/><rect class="cls-7" x="119.44" y="460.6" width="3.24" height="4.46"/><rect class="cls-7" x="124.9" y="460.6" width="3.24" height="4.46"/><rect class="cls-8" x="130.01" y="461.19" width="1.12" height="1.12"/><rect class="cls-8" x="130.01" y="463.67" width="1.12" height="1.12"/><rect class="cls-7" x="17.91" y="439.91" width="223.09" height="46.19"/><rect class="cls-7" x="138.46" y="460.6" width="3.24" height="4.46" transform="translate(280.15 925.65) rotate(-180)"/><rect class="cls-7" x="132.99" y="460.6" width="3.24" height="4.46" transform="translate(269.22 925.65) rotate(-180)"/><rect class="cls-9" x="90.69" y="280.04" width="77.91" height="152.09"/><polyline class="cls-7" points="129.85 257.05 175.03 257.05 168.61 280.04 90.69 280.04 85.34 257.05 129.85 257.05"/><line class="cls-7" x1="91.36" y1="256.93" x2="87.86" y2="267.32"/><line class="cls-7" x1="118.55" y1="257.05" x2="110.79" y2="279.8"/><line class="cls-7" x1="104.31" y1="257.05" x2="96.56" y2="279.8"/><line class="cls-7" x1="132.88" y1="257.05" x2="124.47" y2="280.28"/><line class="cls-7" x1="147.15" y1="257.05" x2="139.29" y2="279.8"/><line class="cls-7" x1="161.27" y1="257.05" x2="153.68" y2="280.04"/><rect class="cls-7" x="81.5" y="432.12" width="97" height="7.79"/></g></svg>