<svg xmlns="http://www.w3.org/2000/svg" viewBox="0 0 209.21 394.37"><defs><style>.cls-1,.cls-3,.cls-4,.cls-5,.cls-7,.cls-8{fill:none;}.cls-1,.cls-3,.cls-4,.cls-5,.cls-7,.cls-8,.cls-9{stroke:#fff;}.cls-1{stroke-linecap:round;stroke-linejoin:round;}.cls-2{fill:#7d3c21;}.cls-3,.cls-4,.cls-5,.cls-7,.cls-8,.cls-9{stroke-miterlimit:10;}.cls-3{stroke-dasharray:4;}.cls-4{stroke-width:0.97px;}.cls-6{fill:#fff;}.cls-7{stroke-width:1px;}.cls-8,.cls-9{stroke-width:1.01px;}.cls-9{fill:#ea5230;}</style></defs><title>Artboard 15 copy 9</title><g id="desktop"><polyline class="cls-1" points="74.87 251.44 77.31 248.9 77.31 259.97"/><path class="cls-1" d="M79.11,229.74H73.59s3.05-3.84,4-5.26c1.25-1.82.71-4.17-1.66-4.17a2.24,2.24,0,0,0-2.37,2.57"/><polyline class="cls-1" points="79.43 170.62 73.19 170.62 77.31 162.7 77.31 173.47"/><path class="cls-1" d="M76.19,196.6a2.33,2.33,0,1,0-2.33-2.33"/><path class="cls-1" d="M73.7,199.25a2.65,2.65,0,1,0,2.65-2.65"/><rect class="cls-2" x="58.17" y="294" width="93.41" height="23.59"/><line class="cls-3" x1="58.17" y1="317.58" x2="151.2" y2="317.58"/><line class="cls-3" x1="58.17" y1="320.28" x2="151.2" y2="320.28"/><polygon class="cls-4" points="58.48 115.59 152.26 115.65 152.26 294.33 58.48 294.33 58.48 115.59"/><line class="cls-5" x1="45.71" y1="294.33" x2="165.04" y2="294.33"/><rect class="cls-5" x="42.77" y="103.93" width="125.21" height="11.7" transform="translate(210.74 219.55) rotate(180)"/><line class="cls-5" x1="105.36" y1="53.74" x2="105.36" y2="37.25"/><polygon class="cls-6" points="98.92 52.79 105.36 56.85 111.8 52.79 111.8 52.75 98.92 52.75 98.92 52.79"/><polygon class="cls-7" points="66.56 271.11 66.56 92.45 144.85 92.47 144.85 271.11 66.56 271.11"/><polyline class="cls-8" points="105.51 294.2 60.1 294.2 66.55 271.11 144.85 271.11 150.24 294.2 105.51 294.2"/><line class="cls-9" x1="144.19" y1="294.33" x2="147.7" y2="283.88"/><line class="cls-9" x1="116.86" y1="294.21" x2="124.66" y2="271.35"/><line class="cls-9" x1="131.17" y1="294.21" x2="138.96" y2="271.35"/><line class="cls-9" x1="102.46" y1="294.21" x2="110.91" y2="270.86"/><line class="cls-9" x1="88.12" y1="294.21" x2="96.01" y2="271.35"/><line class="cls-9" x1="73.93" y1="294.21" x2="81.55" y2="271.1"/><rect class="cls-8" x="56.61" y="84.72" width="97.49" height="7.75" transform="translate(210.71 177.18) rotate(180)"/></g></svg>