<svg xmlns="http://www.w3.org/2000/svg" viewBox="0 0 439.58 499.71"><defs><style>.cls-1,.cls-3,.cls-4,.cls-5{fill:none;}.cls-1,.cls-3,.cls-4,.cls-5,.cls-6{stroke:#fff;}.cls-1,.cls-4,.cls-5,.cls-6{stroke-miterlimit:10;}.cls-2{fill:#7d3c21;}.cls-3{stroke-linecap:round;stroke-linejoin:round;}.cls-4{stroke-width:0.67px;}.cls-5{stroke-width:1px;}.cls-6{fill:#ea5230;}.cls-7{fill:#fff;}</style></defs><title>Artboard 15 copy 7</title><g id="desktop"><path class="cls-1" d="M362.56,403.26v14.82h-72V336.54h72v14.82h.07a26,26,0,0,1-.06,51.9Z"/><path class="cls-1" d="M362.56,394.76a17.45,17.45,0,0,0,.07-34.89h-.07v34.87Z"/><polygon class="cls-2" points="125.87 303.95 65.47 303.95 65.47 203.68 125.87 203.37 125.87 303.95"/><rect class="cls-1" x="65.47" y="195.26" width="60.41" height="124.1"/><line class="cls-1" x1="134.1" y1="195.26" x2="57.24" y2="195.26"/><rect class="cls-1" x="55.35" y="187.72" width="80.65" height="7.53"/><rect class="cls-1" x="80.61" y="191.04" width="29.99" height="4.22" transform="translate(191.21 386.3) rotate(180)"/><rect class="cls-1" x="65.47" y="178.98" width="60.57" height="16.27"/><polyline class="cls-3" points="115.52 216.21 113.89 217.91 113.89 210.53"/><path class="cls-3" d="M112.69,230.67h3.68s-2,2.56-2.68,3.51c-.83,1.22-.47,2.78,1.11,2.78a1.49,1.49,0,0,0,1.58-1.71"/><polyline class="cls-3" points="112.48 270.06 116.64 270.06 113.89 275.34 113.89 268.16"/><path class="cls-3" d="M114.64,252.75a1.55,1.55,0,1,0,1.55,1.55"/><path class="cls-3" d="M116.3,251a1.76,1.76,0,1,0-1.76,1.76"/><rect class="cls-1" x="69.1" y="319.37" width="52.39" height="102.27"/><polyline class="cls-1" points="95.42 303.91 125.77 303.91 121.49 319.37 69.1 319.37 65.61 303.91 95.42 303.91"/><line class="cls-1" x1="69.54" y1="303.83" x2="67.19" y2="310.82"/><line class="cls-1" x1="87.82" y1="303.91" x2="82.61" y2="319.21"/><line class="cls-1" x1="78.25" y1="303.91" x2="73.04" y2="319.21"/><line class="cls-1" x1="97.46" y1="303.91" x2="91.87" y2="319.36"/><line class="cls-1" x1="107.06" y1="303.91" x2="101.77" y2="319.21"/><line class="cls-1" x1="116.55" y1="303.91" x2="111.45" y2="319.37"/><rect class="cls-1" x="62.91" y="421.64" width="65.23" height="5.18"/><polygon class="cls-2" points="295.93 220.15 356.7 220.15 356.7 320.42 295.93 320.73 295.93 220.15"/><rect class="cls-1" x="296.29" y="204.75" width="60.41" height="124.1" transform="translate(652.99 533.59) rotate(180)"/><line class="cls-4" x1="288.07" y1="328.84" x2="364.92" y2="328.84"/><rect class="cls-1" x="286.17" y="328.84" width="80.65" height="7.53" transform="translate(652.99 665.22) rotate(180)"/><rect class="cls-1" x="311.57" y="328.84" width="29.99" height="3.71"/><rect class="cls-1" x="296.13" y="328.84" width="60.57" height="16.27"/><polyline class="cls-3" points="306.65 307.89 308.27 306.19 308.27 313.57"/><path class="cls-3" d="M309.47,293.43h-3.68s2-2.56,2.68-3.51c.83-1.22.47-2.78-1.11-2.78a1.49,1.49,0,0,0-1.58,1.71"/><polyline class="cls-3" points="309.69 254.04 305.53 254.04 308.27 248.76 308.27 255.94"/><path class="cls-3" d="M307.53,271.35A1.55,1.55,0,1,0,306,269.8"/><path class="cls-3" d="M305.87,273.12a1.76,1.76,0,1,0,1.76-1.76"/><rect class="cls-5" x="300.72" y="104" width="51.66" height="100.84"/><polyline class="cls-5" points="326.41 220.07 296.45 220.07 300.71 204.84 352.38 204.84 356.19 220.07 326.41 220.07"/><line class="cls-6" x1="351.94" y1="220.15" x2="354.4" y2="212.92"/><line class="cls-6" x1="333.91" y1="220.07" x2="339.05" y2="204.99"/><line class="cls-6" x1="343.35" y1="220.07" x2="348.49" y2="204.99"/><line class="cls-6" x1="324.4" y1="220.07" x2="329.98" y2="204.66"/><line class="cls-6" x1="314.94" y1="220.07" x2="320.15" y2="204.99"/><line class="cls-6" x1="305.58" y1="220.07" x2="310.61" y2="204.83"/><rect class="cls-1" x="294.15" y="98.86" width="64.32" height="5.11" transform="translate(652.63 202.84) rotate(180)"/><path class="cls-1" d="M253.62,174.46c-11.58-2.43-53.91-8.79-84,19.67"/><polygon class="cls-7" points="251.31 180.6 256.65 175.17 254.05 168.02 254.01 168.01 251.27 180.59 251.31 180.6"/></g></svg>