<svg xmlns="http://www.w3.org/2000/svg" viewBox="0 0 195.67 396.01"><defs><style>.cls-1,.cls-4{fill:none;}.cls-1,.cls-4,.cls-5{stroke:#fff;stroke-miterlimit:10;}.cls-2{fill:#fff;}.cls-3{fill:#7d3c21;}.cls-4{stroke-width:0.67px;}.cls-5{fill:#ea5230;}</style></defs><title>Artboard 15 copy 8</title><g id="desktop"><line class="cls-1" x1="98.27" y1="49.15" x2="98.27" y2="32.66"/><polygon class="cls-2" points="91.83 48.2 98.27 52.27 104.7 48.2 104.7 48.16 91.83 48.16 91.83 48.2"/><rect class="cls-3" x="63.4" y="310.52" width="72.03" height="32.54"/><rect class="cls-3" x="80.94" y="269.9" width="1.06" height="41.62"/><rect class="cls-3" x="99.31" y="269.9" width="1.06" height="41.62"/><rect class="cls-3" x="117.69" y="269.9" width="1.06" height="41.62"/><path class="cls-1" d="M135.43,343.07h-72V261.53h72v14.82h.07a26,26,0,0,1,0,51.9Z"/><path class="cls-1" d="M135.43,319.74a17.45,17.45,0,0,0,.07-34.89h-.07v34.87Z"/><line class="cls-1" x1="135.4" y1="341.13" x2="135.43" y2="320.02"/><polygon class="cls-3" points="69.79 205.31 130.56 205.31 130.56 245.39 69.79 245.51 69.79 205.31"/><rect class="cls-1" x="70.15" y="129.53" width="60.41" height="124.1" transform="translate(200.72 383.15) rotate(180)"/><line class="cls-4" x1="61.93" y1="253.63" x2="138.79" y2="253.63"/><rect class="cls-1" x="60.03" y="253.63" width="80.65" height="7.86" transform="translate(200.72 515.12) rotate(180)"/><rect class="cls-1" x="85.43" y="253.63" width="29.99" height="4.22"/><rect class="cls-1" x="69.99" y="253.63" width="60.57" height="16.27"/><polygon class="cls-1" points="74.58 172.24 74.58 71.58 126.24 71.48 126.24 172.24 74.58 172.24"/><polyline class="cls-1" points="100.28 187.49 70.31 187.49 74.58 172.24 126.24 172.24 129.79 187.49 100.28 187.49"/><line class="cls-5" x1="125.8" y1="187.57" x2="128.12" y2="180.68"/><line class="cls-5" x1="107.77" y1="187.49" x2="112.91" y2="172.4"/><line class="cls-5" x1="117.21" y1="187.49" x2="122.35" y2="172.4"/><line class="cls-5" x1="98.27" y1="187.49" x2="103.84" y2="172.08"/><line class="cls-5" x1="88.8" y1="187.49" x2="94.01" y2="172.4"/><line class="cls-5" x1="79.44" y1="187.49" x2="84.47" y2="172.24"/><rect class="cls-1" x="68.02" y="66.42" width="64.32" height="5.11" transform="translate(200.35 137.95) rotate(180)"/></g></svg>