<svg xmlns="http://www.w3.org/2000/svg" viewBox="0 0 274.04 417.71"><defs><style>.cls-1{fill:#5a371b;}.cls-2,.cls-3,.cls-5,.cls-6,.cls-7{fill:none;}.cls-2,.cls-3,.cls-4,.cls-6,.cls-7{stroke:#fff;}.cls-2,.cls-3,.cls-4,.cls-5,.cls-7{stroke-miterlimit:10;}.cls-2{stroke-width:1.08px;}.cls-3,.cls-6{stroke-width:0.94px;}.cls-4{fill:#fff;stroke-width:0.23px;}.cls-5{stroke:#baddd4;stroke-width:0.94px;stroke-dasharray:3.75;}.cls-6{stroke-linecap:round;stroke-linejoin:round;}.cls-7{stroke-width:0.93px;}</style></defs><title>Artboard 82</title><g id="desktop"><path class="cls-1" d="M100.94,209.47a1.72,1.72,0,1,0,1.72,1.72,1.72,1.72,0,0,0-1.72-1.72"/><path class="cls-1" d="M106.9,209.47a1.72,1.72,0,1,0,1.72,1.72,1.72,1.72,0,0,0-1.72-1.72"/><path class="cls-1" d="M112.85,209.47a1.72,1.72,0,1,0,1.72,1.72,1.72,1.72,0,0,0-1.72-1.72"/><path class="cls-1" d="M118.81,209.47a1.72,1.72,0,1,0,1.72,1.72,1.72,1.72,0,0,0-1.72-1.72"/><path class="cls-1" d="M124.77,209.47a1.72,1.72,0,1,0,1.72,1.72,1.72,1.72,0,0,0-1.72-1.72"/><path class="cls-1" d="M130.73,209.47a1.72,1.72,0,1,0,1.72,1.72,1.72,1.72,0,0,0-1.72-1.72"/><path class="cls-1" d="M136.68,209.47a1.72,1.72,0,1,0,1.72,1.72,1.72,1.72,0,0,0-1.72-1.72"/><path class="cls-1" d="M142.64,209.47a1.72,1.72,0,1,0,1.72,1.72,1.72,1.72,0,0,0-1.72-1.72"/><path class="cls-1" d="M148.6,209.47a1.72,1.72,0,1,0,1.72,1.72,1.72,1.72,0,0,0-1.72-1.72"/><path class="cls-1" d="M154.55,209.47a1.72,1.72,0,1,0,1.72,1.72,1.72,1.72,0,0,0-1.72-1.72"/><path class="cls-1" d="M160.51,209.47a1.72,1.72,0,1,0,1.72,1.72,1.72,1.72,0,0,0-1.72-1.72"/><path class="cls-1" d="M100.94,203.25a1.72,1.72,0,1,0,1.72,1.72,1.72,1.72,0,0,0-1.72-1.72"/><path class="cls-1" d="M106.9,203.25a1.72,1.72,0,1,0,1.72,1.72,1.72,1.72,0,0,0-1.72-1.72"/><path class="cls-1" d="M112.85,203.25a1.72,1.72,0,1,0,1.72,1.72,1.72,1.72,0,0,0-1.72-1.72"/><path class="cls-1" d="M118.81,203.25a1.72,1.72,0,1,0,1.72,1.72,1.72,1.72,0,0,0-1.72-1.72"/><path class="cls-1" d="M124.77,203.25a1.72,1.72,0,1,0,1.72,1.72,1.72,1.72,0,0,0-1.72-1.72"/><path class="cls-1" d="M130.73,203.25a1.72,1.72,0,1,0,1.72,1.72,1.72,1.72,0,0,0-1.72-1.72"/><path class="cls-1" d="M136.68,203.25A1.72,1.72,0,1,0,138.4,205a1.72,1.72,0,0,0-1.72-1.72"/><path class="cls-1" d="M142.64,203.25a1.72,1.72,0,1,0,1.72,1.72,1.72,1.72,0,0,0-1.72-1.72"/><path class="cls-1" d="M148.6,203.25a1.72,1.72,0,1,0,1.72,1.72,1.72,1.72,0,0,0-1.72-1.72"/><path class="cls-1" d="M154.55,203.25a1.72,1.72,0,1,0,1.72,1.72,1.72,1.72,0,0,0-1.72-1.72"/><path class="cls-1" d="M160.51,203.25a1.72,1.72,0,1,0,1.72,1.72,1.72,1.72,0,0,0-1.72-1.72"/><path class="cls-1" d="M100.94,196.74a1.72,1.72,0,1,0,1.72,1.72,1.72,1.72,0,0,0-1.72-1.72"/><path class="cls-1" d="M106.9,196.74a1.72,1.72,0,1,0,1.72,1.72,1.72,1.72,0,0,0-1.72-1.72"/><path class="cls-1" d="M112.85,196.74a1.72,1.72,0,1,0,1.72,1.72,1.72,1.72,0,0,0-1.72-1.72"/><path class="cls-1" d="M118.81,196.74a1.72,1.72,0,1,0,1.72,1.72,1.72,1.72,0,0,0-1.72-1.72"/><path class="cls-1" d="M124.77,196.74a1.72,1.72,0,1,0,1.72,1.72,1.72,1.72,0,0,0-1.72-1.72"/><path class="cls-1" d="M130.73,196.74a1.72,1.72,0,1,0,1.72,1.72,1.72,1.72,0,0,0-1.72-1.72"/><path class="cls-1" d="M136.68,196.74a1.72,1.72,0,1,0,1.72,1.72,1.72,1.72,0,0,0-1.72-1.72"/><path class="cls-1" d="M142.64,196.74a1.72,1.72,0,1,0,1.72,1.72,1.72,1.72,0,0,0-1.72-1.72"/><path class="cls-1" d="M148.6,196.74a1.72,1.72,0,1,0,1.72,1.72,1.72,1.72,0,0,0-1.72-1.72"/><path class="cls-1" d="M154.55,196.74a1.72,1.72,0,1,0,1.72,1.72,1.72,1.72,0,0,0-1.72-1.72"/><path class="cls-1" d="M160.51,196.74a1.72,1.72,0,1,0,1.72,1.72,1.72,1.72,0,0,0-1.72-1.72"/><rect class="cls-2" x="118.59" y="362.48" width="25.3" height="9.17"/><rect class="cls-3" x="123.15" y="365.43" width="2.38" height="3.27"/><rect class="cls-3" x="127.17" y="365.43" width="2.38" height="3.27"/><rect class="cls-4" x="130.91" y="365.86" width="0.83" height="0.83"/><rect class="cls-4" x="130.91" y="367.68" width="0.83" height="0.83"/><rect class="cls-3" x="48.62" y="350.25" width="163.78" height="33.91"/><rect class="cls-3" x="137.11" y="365.43" width="2.38" height="3.27" transform="translate(276.61 734.13) rotate(-180)"/><rect class="cls-3" x="133.1" y="365.43" width="2.38" height="3.27" transform="translate(268.59 734.13) rotate(-180)"/><rect class="cls-3" x="96.96" y="94.37" width="67.47" height="138.62"/><line class="cls-3" x1="173.62" y1="94.37" x2="87.77" y2="94.37"/><rect class="cls-3" x="85.65" y="85.95" width="90.08" height="8.41"/><path class="cls-5" d="M122.78,171.28c0-13,15.37-13,15.37-26s-15.37-13-15.37-26,15.37-13,15.37-26-15.37-13-15.37-26,15.37-13,15.37-26"/><polyline class="cls-6" points="153.82 113.31 151.86 115.35 151.86 106.46"/><path class="cls-6" d="M150.42,130.73h4.44s-2.45,3.08-3.23,4.22c-1,1.46-.57,3.35,1.33,3.35a1.8,1.8,0,0,0,1.9-2.06"/><polyline class="cls-6" points="150.16 178.17 155.17 178.17 151.87 184.53 151.87 175.88"/><path class="cls-6" d="M152.76,157.32a1.87,1.87,0,1,0,1.87,1.87"/><path class="cls-6" d="M154.76,155.19a2.12,2.12,0,1,0-2.12,2.12"/><rect class="cls-7" x="102.05" y="232.88" width="57.19" height="111.65"/><polyline class="cls-3" points="130.79 216 163.97 216 159.25 232.88 102.05 232.88 98.12 216 130.79 216"/><line class="cls-3" x1="102.54" y1="215.91" x2="99.97" y2="223.54"/><line class="cls-3" x1="122.5" y1="216" x2="116.81" y2="232.7"/><line class="cls-3" x1="112.05" y1="216" x2="106.35" y2="232.7"/><line class="cls-3" x1="133.02" y1="216" x2="126.85" y2="233.06"/><line class="cls-3" x1="143.5" y1="216" x2="137.73" y2="232.7"/><line class="cls-3" x1="153.86" y1="216" x2="148.29" y2="232.88"/><rect class="cls-3" x="95.3" y="344.53" width="71.21" height="5.72"/></g></svg>