<svg xmlns="http://www.w3.org/2000/svg" viewBox="0 0 163.84 426.46"><defs><style>.cls-1,.cls-4,.cls-5,.cls-6,.cls-8{fill:none;}.cls-1,.cls-4,.cls-5,.cls-6,.cls-7,.cls-8{stroke:#fff;}.cls-1,.cls-5,.cls-6,.cls-7,.cls-8{stroke-miterlimit:10;}.cls-2{fill:#fff;}.cls-3{fill:#7d3c21;}.cls-4{stroke-linecap:round;stroke-linejoin:round;}.cls-5{stroke-width:0.98px;}.cls-6{stroke-width:0.99px;}.cls-7{fill:#ea5230;}.cls-7,.cls-8{stroke-width:1.01px;}</style></defs><title>Artboard 15 copy 5</title><g id="desktop"><path class="cls-1" d="M142.63,37.33c5-1.72,14.07-6.58,8-18.24"/><polygon class="cls-2" points="141.68 30.82 139.63 38.15 145.37 43.16 145.41 43.14 141.72 30.81 141.68 30.82"/><polygon class="cls-3" points="115.3 228.92 24.5 229 24.5 77.9 115.13 77.89 115.3 228.92"/><rect class="cls-1" x="24.5" y="65.25" width="90.66" height="186.26"/><line class="cls-1" x1="127.51" y1="65.25" x2="12.15" y2="65.25"/><rect class="cls-1" x="9.31" y="53.95" width="121.04" height="11.31"/><rect class="cls-1" x="47.23" y="58.93" width="45.01" height="6.33" transform="translate(139.46 124.18) rotate(180)"/><rect class="cls-1" x="24.5" y="40.83" width="90.9" height="24.43"/><polyline class="cls-4" points="99.61 96.7 97.17 99.25 97.17 88.17"/><path class="cls-4" d="M95.37,118.41h5.53s-3.05,3.84-4,5.26c-1.25,1.82-.71,4.17,1.66,4.17a2.24,2.24,0,0,0,2.37-2.57"/><polyline class="cls-4" points="95.06 177.53 101.29 177.53 97.18 185.45 97.18 174.68"/><path class="cls-4" d="M98.3,151.55a2.33,2.33,0,1,0,2.33,2.33"/><path class="cls-4" d="M100.78,148.9a2.65,2.65,0,1,0-2.65,2.65"/><rect class="cls-5" x="30.28" y="251.21" width="78.16" height="153.41"/><polyline class="cls-6" points="69.56 228.98 114.89 228.98 108.45 251.21 30.28 251.21 24.91 228.98 69.56 228.98"/><line class="cls-7" x1="30.95" y1="228.85" x2="27.44" y2="239.28"/><line class="cls-7" x1="58.22" y1="228.98" x2="50.45" y2="251.8"/><line class="cls-7" x1="43.94" y1="228.98" x2="36.16" y2="251.8"/><line class="cls-7" x1="72.6" y1="228.98" x2="64.58" y2="251.33"/><line class="cls-7" x1="86.92" y1="228.98" x2="79.04" y2="251.8"/><line class="cls-7" x1="101.08" y1="228.98" x2="93.68" y2="251.33"/><rect class="cls-8" x="21.05" y="404.7" width="97.32" height="7.73"/></g></svg>