<?xml version="1.0" encoding="UTF-8"?>
<svg width="22px" height="22px" viewBox="0 0 22 22" version="1.1" xmlns="http://www.w3.org/2000/svg" xmlns:xlink="http://www.w3.org/1999/xlink">
    <!-- Generator: Sketch 42 (36781) - http://www.bohemiancoding.com/sketch -->
    <title>icon-time</title>
    <desc>Created with Sketch.</desc>
    <defs></defs>
    <g id="Page-1" stroke="none" stroke-width="1" fill="none" fill-rule="evenodd">
        <g id="icon-time" fill-rule="nonzero" fill="#231F20">
            <g id="Artboard-115-copy-6">
                <g id="desktop">
                    <path d="M20.31,10.13 C20.243755,13.9621075 18.0120983,17.4258248 14.55,19.07 C9.16,21.51 1.89,18.59 1.75,11.8 C1.73810757,7.97655173 3.96884872,4.50129183 7.45,2.92 C9.37390644,2.06323339 11.5192,1.83575528 13.58,2.27 C17.2857738,3.25083545 19.9779374,6.45102997 20.31,10.27 C20.31,10.73 21.51,12.27 21.48,11.75 C21.22,7 18.35,2.24 13.67,0.69 C10.6202216,-0.276315962 7.29296118,0.259410507 4.70062797,2.13417011 C2.10829476,4.00892972 0.557457333,7.00101391 0.52,10.2 C0.612341092,14.7826753 3.25531123,18.9304021 7.37,20.95 C14.1,24.01 21.09,18.86 21.47,11.87 C21.51,11.27 20.31,10.07 20.31,10.13 Z" id="Shape"></path>
                    <path d="M10.42,3.53 L10.42,10.33 C10.42,10.68 11.02,12.01 11.42,12.01 L16.1,12.01 C16.42,12.01 15.68,10.13 15.18,10.13 L10.54,10.13 L11.54,11.81 L11.54,5 C11.54,4.54 10.37,3 10.37,3.52 L10.42,3.53 Z" id="Shape"></path>
                </g>
            </g>
        </g>
    </g>
</svg>