<?xml version="1.0" encoding="UTF-8"?>
<svg width="22px" height="20px" viewBox="0 0 22 20" version="1.1" xmlns="http://www.w3.org/2000/svg" xmlns:xlink="http://www.w3.org/1999/xlink">
    <!-- Generator: Sketch 42 (36781) - http://www.bohemiancoding.com/sketch -->
    <title>icon-water</title>
    <desc>Created with Sketch.</desc>
    <defs></defs>
    <g id="Page-1" stroke="none" stroke-width="1" fill="none" fill-rule="evenodd">
        <g id="icon-water" fill-rule="nonzero" fill="#020202">
            <g id="Artboard-115-copy-5">
                <g id="desktop">
                    <path d="M20.66,1.65 C19.6882229,3.05822352 18.2839922,4.11139658 16.66,4.65 C13.55,5.6 12.11,3.54 9.89,2 C6.38,-0.45 3.08,0.63 0.43,3.83 C0.15,4.17 1.19,5.42 1.29,5.31 C3.09,3.14 5.45,1.47 8.43,2.31 C10.53,2.87 11.31,4.8 13.08,5.74 C16.17,7.38 19.56,5.84 21.47,3.16 C21.79,2.75 20.73,1.56 20.66,1.65 Z" id="Shape"></path>
                    <path d="M20.66,7.92 C19.6882229,9.32822352 18.2839922,10.3813966 16.66,10.92 C13.55,11.87 12.11,9.81 9.89,8.27 C6.38,5.82 3.08,6.9 0.43,10.1 C0.15,10.44 1.19,11.69 1.29,11.58 C3.09,9.41 5.45,7.74 8.43,8.58 C10.53,9.14 11.31,11.07 13.08,12.01 C16.17,13.65 19.56,12.11 21.47,9.43 C21.79,9 20.73,7.84 20.66,7.92 Z" id="Shape"></path>
                    <path d="M20.66,14.59 C19.6882229,15.9982235 18.2839922,17.0513966 16.66,17.59 C13.55,18.54 12.11,16.48 9.89,14.94 C6.38,12.49 3.08,13.57 0.43,16.77 C0.15,17.11 1.19,18.36 1.29,18.25 C3.09,16.08 5.45,14.41 8.43,15.25 C10.53,15.81 11.31,17.74 13.08,18.68 C16.17,20.32 19.56,18.78 21.47,16.1 C21.79,15.7 20.73,14.51 20.66,14.59 Z" id="Shape"></path>
                </g>
            </g>
        </g>
    </g>
</svg>