<svg xmlns="http://www.w3.org/2000/svg" xmlns:xlink="http://www.w3.org/1999/xlink" viewBox="0 0 334.47 499.71"><defs><style>.cls-1,.cls-2,.cls-5{fill:none;}.cls-2,.cls-5{stroke:#fff;stroke-miterlimit:10;}.cls-3{fill:#fff;}.cls-4{fill:#7d3c21;}.cls-5{stroke-width:1.4px;}.cls-6{clip-path:url(#clip-path);}</style><clipPath id="clip-path"><rect class="cls-1" x="77.68" y="113.91" width="178.02" height="16.55"/></clipPath></defs><title>Artboard 15 copy 6</title><g id="desktop"><line class="cls-2" x1="49.96" y1="80.91" x2="49.69" y2="54.07"/><polygon class="cls-3" points="43.52 80.02 49.99 84.02 56.39 79.89 56.39 79.85 43.52 79.98 43.52 80.02"/><line class="cls-2" x1="282.15" y1="80.91" x2="281.88" y2="54.07"/><polygon class="cls-3" points="275.71 80.02 282.18 84.02 288.58 79.89 288.58 79.85 275.7 79.98 275.71 80.02"/><polygon class="cls-4" points="258.21 420.58 69.32 420.58 69.32 207.38 258.21 206.73 258.21 420.58"/><rect class="cls-5" x="69.32" y="181.35" width="188.89" height="239.53"/><line class="cls-5" x1="283.93" y1="181.35" x2="43.6" y2="181.35"/><rect class="cls-5" x="37.68" y="157.79" width="252.18" height="23.56"/><rect class="cls-5" x="116.68" y="168.17" width="93.77" height="13.18" transform="translate(327.13 349.51) rotate(180)"/><rect class="cls-5" x="69.32" y="130.46" width="189.39" height="50.89"/><g class="cls-6"><circle class="cls-5" cx="95.13" cy="131.57" r="9.83"/><circle class="cls-5" cx="150.12" cy="132.69" r="8.72"/><circle class="cls-5" cx="188.85" cy="132.69" r="8.72"/><circle class="cls-5" cx="212.35" cy="130.21" r="3.52"/><circle class="cls-5" cx="237.7" cy="132.69" r="7.63"/><circle class="cls-5" cx="168.76" cy="130.9" r="2.88"/><circle class="cls-5" cx="123.4" cy="131.5" r="5.9"/></g></g></svg>